<?xml version="1.0" standalone="no"?>
<!DOCTYPE svg PUBLIC "-//W3C//DTD SVG 20010904//EN"
 "http://www.w3.org/TR/2001/REC-SVG-20010904/DTD/svg10.dtd">
<svg version="1.0" xmlns="http://www.w3.org/2000/svg"
 width="156.000000pt" height="156.000000pt" viewBox="0 0 156.000000 156.000000"
 preserveAspectRatio="xMidYMid meet">
<metadata>
Created by potrace 1.14, written by Peter Selinger 2001-2017
</metadata>
<g transform="translate(0.000000,156.000000) scale(0.100000,-0.100000)"
fill="#000000" stroke="none">
<path d="M747 1524 c-1 -2 -14 -5 -27 -7 -60 -11 -89 -20 -85 -27 3 -5 -5 -6
-17 -2 -16 4 -19 2 -13 -8 6 -10 4 -12 -8 -7 -22 8 -69 -12 -60 -26 3 -6 1 -7
-5 -3 -11 7 -159 -67 -227 -115 -144 -99 -250 -259 -291 -436 -16 -70 -12
-238 7 -316 81 -334 388 -563 728 -544 100 6 178 23 246 54 85 38 255 138 255
149 0 7 8 11 18 10 9 0 16 5 15 11 -2 7 3 12 10 10 6 -1 11 3 10 10 -2 8 4 10
14 6 10 -4 14 -2 9 5 -3 6 3 13 15 17 13 4 18 12 15 21 -3 8 -2 13 3 10 9 -6
71 61 63 69 -3 3 0 5 7 5 7 0 11 7 8 15 -4 8 -1 17 5 21 7 4 8 3 4 -4 -4 -7
-5 -12 -2 -12 5 0 46 78 46 87 0 3 -5 1 -12 -3 -7 -4 -8 -3 -4 5 4 6 11 9 16
6 4 -3 13 9 19 25 5 17 7 30 3 30 -4 0 -2 4 3 8 11 7 29 75 41 151 5 35 4 42
-7 35 -12 -6 -12 -5 -1 9 15 18 13 78 -3 89 -6 5 -5 8 3 8 7 0 10 5 7 10 -4 6
-12 7 -18 3 -8 -4 -8 -1 1 9 8 10 10 30 6 57 -6 36 -9 40 -23 29 -13 -10 -14
-10 -3 2 15 18 16 54 0 44 -6 -4 -8 -3 -5 4 9 14 -3 43 -14 36 -5 -3 -6 2 -3
11 4 9 -1 22 -12 31 -11 9 -13 13 -6 9 10 -5 10 -1 0 19 -6 14 -15 26 -20 26
-4 0 -7 3 -6 8 8 24 -135 187 -154 176 -6 -4 -8 -3 -5 3 6 9 -43 53 -58 53 -4
0 -13 7 -22 15 -8 8 -19 13 -24 10 -5 -4 -9 -2 -9 2 0 13 -80 44 -92 37 -7 -4
-8 -2 -4 4 7 12 -50 31 -108 36 -18 2 -37 6 -42 9 -9 5 -182 6 -187 1z m118
-24 c3 -5 1 -10 -4 -10 -6 0 -11 5 -11 10 0 6 2 10 4 10 3 0 8 -4 11 -10z m45
0 c0 -5 -2 -10 -4 -10 -3 0 -8 5 -11 10 -3 6 -1 10 4 10 6 0 11 -4 11 -10z
m-220 -14 c0 -2 -7 -7 -16 -10 -8 -3 -12 -2 -9 4 6 10 25 14 25 6z m300 -20
c0 -3 -4 -8 -10 -11 -5 -3 -10 -1 -10 4 0 6 5 11 10 11 6 0 10 -2 10 -4z m40
-6 c0 -5 -2 -10 -4 -10 -3 0 -8 5 -11 10 -3 6 -1 10 4 10 6 0 11 -4 11 -10z
m0 -34 c0 -3 -4 -8 -10 -11 -5 -3 -10 -1 -10 4 0 6 5 11 10 11 6 0 10 -2 10
-4z m94 -32 c3 -8 2 -12 -4 -9 -6 3 -10 10 -10 16 0 14 7 11 14 -7z m90 -32
c3 -5 -1 -9 -9 -9 -8 0 -12 4 -9 9 3 4 7 8 9 8 2 0 6 -4 9 -8z m76 -82 c0 -5
-4 -10 -10 -10 -5 0 -10 5 -10 10 0 6 5 10 10 10 6 0 10 -4 10 -10z m50 4 c0
-8 -19 -13 -24 -6 -3 5 1 9 9 9 8 0 15 -2 15 -3z m-50 -84 c0 -5 -2 -10 -4
-10 -3 0 -8 5 -11 10 -3 6 -1 10 4 10 6 0 11 -4 11 -10z m60 -20 c0 -5 -5 -10
-11 -10 -5 0 -7 5 -4 10 3 6 8 10 11 10 2 0 4 -4 4 -10z m80 6 c0 -3 -4 -8
-10 -11 -5 -3 -10 -1 -10 4 0 6 5 11 10 11 6 0 10 -2 10 -4z m-5 -46 c3 -5 1
-10 -4 -10 -6 0 -11 5 -11 10 0 6 2 10 4 10 3 0 8 -4 11 -10z m5 -40 c0 -5 -5
-10 -11 -10 -5 0 -7 5 -4 10 3 6 8 10 11 10 2 0 4 -4 4 -10z m60 -60 c0 -5 -5
-10 -11 -10 -5 0 -7 5 -4 10 3 6 8 10 11 10 2 0 4 -4 4 -10z m10 -36 c0 -8
-19 -13 -24 -6 -3 5 1 9 9 9 8 0 15 -2 15 -3z m-30 -64 c0 -5 -5 -10 -11 -10
-5 0 -7 5 -4 10 3 6 8 10 11 10 2 0 4 -4 4 -10z m-20 -34 c0 -2 -7 -7 -16 -10
-8 -3 -12 -2 -9 4 6 10 25 14 25 6z m40 -22 c0 -8 -19 -13 -24 -6 -3 5 1 9 9
9 8 0 15 -2 15 -3z m20 -64 c0 -5 -5 -10 -11 -10 -5 0 -7 5 -4 10 3 6 8 10 11
10 2 0 4 -4 4 -10z m35 0 c3 -5 1 -10 -4 -10 -6 0 -11 5 -11 10 0 6 2 10 4 10
3 0 8 -4 11 -10z m-58 -105 c0 -8 -4 -12 -9 -9 -5 3 -6 10 -3 15 9 13 12 11
12 -6z m-17 -95 c0 -5 -5 -10 -11 -10 -5 0 -7 5 -4 10 3 6 8 10 11 10 2 0 4
-4 4 -10z m-20 -60 c0 -5 -2 -10 -4 -10 -3 0 -8 5 -11 10 -3 6 -1 10 4 10 6 0
11 -4 11 -10z m-5 -40 c3 -5 1 -10 -4 -10 -6 0 -11 5 -11 10 0 6 2 10 4 10 3
0 8 -4 11 -10z m-40 -40 c3 -5 1 -10 -4 -10 -6 0 -11 5 -11 10 0 6 2 10 4 10
3 0 8 -4 11 -10z m-15 -54 c0 -3 -4 -8 -10 -11 -5 -3 -10 -1 -10 4 0 6 5 11
10 11 6 0 10 -2 10 -4z m0 -46 c0 -5 -2 -10 -4 -10 -3 0 -8 5 -11 10 -3 6 -1
10 4 10 6 0 11 -4 11 -10z"/>
</g>
</svg>
